#!OML:ASF X:\für Bonn\!DataBase\2005_08_12_Daniel\c3d\Daniel.ASF
:FULLY-SPECIFIED
:DEGREES
143
root 6.95852 16.7774 1.10238 148.848 -101.974 -158.144
lowerback 10.1682 -7.24117 -12.4533
upperback 3.15324 -11.1753 -4.91112
thorax -0.961205 -5.69011 2.74034
lowerneck 11.014 7.73841 3.46171
upperneck 9.58531 10.0596 1.60912
head 1.29053 4.92501 -0.258039
rclavicle 3.72224e-014 7.95139e-015
rhumerus -40.6189 -6.82544 -84.2608
rradius 37.1591
rwrist 15.7078
rhand -22.8341 22.2307
rfingers 7.12502
rthumb 3.60332 -7.71855
lclavicle 3.72224e-014 7.95139e-015
lhumerus -3.85536 -15.3455 71.3823
lradius 118.085
lwrist 13.0192
lhand -19.0633 -19.1304
lfingers 7.12502
lthumb 7.24402 10.7256
rfemur -25.8896 -6.83491 14.0543
rtibia 48.7563
rfoot -16.4268 -17.1616
rtoes -5.02249
lfemur 4.80503 -4.88347 -21.9399
ltibia 42.8127
lfoot -33.8734 -5.82899
ltoes -15.9318
144
root 7.06745 16.7932 1.14227 147.985 -101.677 -157.168
lowerback 10.2853 -7.10878 -12.4991
upperback 3.18201 -11.0255 -4.92293
thorax -1.00852 -5.6157 2.76041
lowerneck 10.9396 7.65173 3.65652
upperneck 9.37536 9.98493 1.44688
head 1.25362 4.89648 -0.338463
rclavicle 5.18828e-014 -9.54166e-015
rhumerus -40.184 -6.65671 -85.053
rradius 37.305
rwrist 15.1209
rhand -23.0414 22.1102
rfingers 7.12502
rthumb 3.40313 -7.8424
lclavicle 5.18828e-014 -9.54166e-015
lhumerus -4.97272 -15.3667 72.0337
lradius 117.858
lwrist 12.9907
lhand -19.0098 -19.1211
lfingers 7.12502
lthumb 7.29569 10.7332
rfemur -26.2604 -6.47221 13.8804
rtibia 48.3291
rfoot -15.4959 -17.3909
rtoes -5.00535
lfemur 4.74344 -5.44067 -22.7305
ltibia 42.3152
lfoot -34.1124 -4.41345
ltoes -15.8689
145
root 7.17704 16.8088 1.18201 147.057 -101.342 -156.134
lowerback 10.3936 -6.95579 -12.5042
upperback 3.21964 -10.8435 -4.95029
thorax -1.05669 -5.52584 2.74024
lowerneck 10.8372 7.55084 3.87416
upperneck 9.18764 9.8908 1.29217
head 1.22848 4.8591 -0.418476
rclavicle 1.01132e-014 -1.59028e-015
rhumerus -39.7343 -6.47345 -85.8586
rradius 37.3998
rwrist 14.6279
rhand -23.2507 22.0051
rfingers 7.12502
rthumb 3.20101 -7.95065
lclavicle 1.01132e-014 -1.59028e-015
lhumerus -6.15595 -15.3785 72.6229
lradius 117.702
lwrist 12.9507
lhand -18.877 -19.0648
lfingers 7.12502
lthumb 7.42384 10.7849
rfemur -26.6248 -6.10093 13.7303
rtibia 47.88
rfoot -14.5495 -17.5988
rtoes -4.90752
lfemur 4.66603 -5.90262 -23.4399
ltibia 41.8318
lfoot -34.3011 -3.11366
ltoes -15.756
146
root 7.28624 16.8366 1.22145 145.901 -100.945 -154.874
lowerback 10.4973 -6.78383 -12.5227
upperback 3.25694 -10.6358 -4.95278
thorax -1.09857 -5.42362 2.74919
lowerneck 10.7501 7.46708 4.01351
upperneck 8.95141 9.81429 1.14815
head 1.1808 4.82796 -0.485333
rclavicle 7.23825e-014 -1.43125e-014
rhumerus -39.2746 -6.22517 -86.6336
rradius 37.511
rwrist 14.2517
rhand -23.451 21.8868
rfingers 7.12502
rthumb 3.00757 -8.07173
lclavicle 7.23825e-014 -1.43125e-014
lhumerus -7.35711 -15.3113 73.2539
lradius 117.535
lwrist 12.8817
lhand -18.709 -19.0142
lfingers 7.12502
lthumb 7.58604 10.8298
rfemur -26.9208 -5.68289 13.5956
rtibia 47.3654
rfoot -13.6212 -17.7731
rtoes -4.72594
lfemur 4.59645 -6.27642 -24.1007
ltibia 41.3213
lfoot -34.421 -1.85734
ltoes -15.6771
147
root 7.39621 16.8536 1.26047 144.566 -100.498 -153.471
lowerback 10.6133 -6.58862 -12.511
upperback 3.31655 -10.396 -4.96921
thorax -1.13594 -5.307 2.72611
lowerneck 10.6045 7.38326 4.16438
upperneck 8.76678 9.73293 1.02952
head 1.15777 4.7952 -0.542801
rclavicle -1.05008e-013 -2.70347e-014
rhumerus -38.8231 -5.95066 -87.4128
rradius 37.6449
rwrist 14.0046
rhand -23.5699 21.7374
rfingers 7.12502
rthumb 2.89273 -8.22275
lclavicle -1.05008e-013 -2.70347e-014
lhumerus -8.56437 -15.2328 73.8017
lradius 117.4
lwrist 12.8092
lhand -18.5783 -18.9671
lfingers 7.12502
lthumb 7.71217 10.8723
rfemur -27.2177 -5.23463 13.492
rtibia 46.8594
rfoot -12.6719 -17.9474
rtoes -4.57375
lfemur 4.54524 -6.66073 -24.7314
ltibia 40.8535
lfoot -34.533 -0.611511
ltoes -15.6351
